<svg xmlns="http://www.w3.org/2000/svg" 
    xmlns:xlink="http://www.w3.org/1999/xlink" viewBox="0 0 300 64.1021" width="300" height="64.1021" preserveAspectRatio="none">
    <defs/>
    <style>.companyNamed62916b3-85df-448a-80ab-bbd9c7b41a91 {fill:#4D4D4D;fill-opacity:1;}.icon1d62916b3-85df-448a-80ab-bbd9c7b41a91 {fill:#FF834F;fill-opacity:1;}.icon2d62916b3-85df-448a-80ab-bbd9c7b41a91 {fill:#FF4949;fill-opacity:1;}.icon3d62916b3-85df-448a-80ab-bbd9c7b41a91 {fill:#FFAE78;fill-opacity:1;}.shapeStroke-strd62916b3-85df-448a-80ab-bbd9c7b41a91 {stroke:#313131;stroke-opacity:1;}</style>
    <g opacity="1" transform="rotate(0 0 7.3964)">
        <svg width="60.6884" height="49.3093" x="0" y="7.3964" version="1.1" preserveAspectRatio="none" viewBox="20 35 160 130">
            <g transform="matrix(1 0 0 1 0 0)">
                <g>
                    <path d="M20 111.4l39.8 26.8.1-53.6L20 111.4z" data-color="1" class="icon1d62916b3-85df-448a-80ab-bbd9c7b41a91"/>
                    <path d="M99.9 111.3L60.1 84.5l-.1 53.6 39.9-26.8z" data-color="2" class="icon2d62916b3-85df-448a-80ab-bbd9c7b41a91"/>
                    <path d="M139.8 35L99.9 61.9l39.9 22.6V35z" data-color="3" class="icon3d62916b3-85df-448a-80ab-bbd9c7b41a91"/>
                    <path d="M99.9 111.4l39.8 26.8 39.9-26.8-39.8-26.8-39.9 26.8c-.1 0 0 0 0 0z" data-color="4" class="icon1d62916b3-85df-448a-80ab-bbd9c7b41a91"/>
                    <path d="M60 35l39.9 26.9L60 84.5V35z" data-color="2" class="icon2d62916b3-85df-448a-80ab-bbd9c7b41a91"/>
                    <path d="M60 35L20.1 61.9 60 84.5V35z" data-color="1" class="icon1d62916b3-85df-448a-80ab-bbd9c7b41a91"/>
                    <path d="M60 138.2L99.8 165l.1-53.6L60 138.2z" data-color="3" class="icon3d62916b3-85df-448a-80ab-bbd9c7b41a91"/>
                    <path d="M139.9 138.1L100 111.4V165l39.9-26.9z" data-color="2" class="icon2d62916b3-85df-448a-80ab-bbd9c7b41a91"/>
                    <path d="M100 111.4l39.8 26.8.1-53.6-39.9 26.8z" data-color="3" class="icon3d62916b3-85df-448a-80ab-bbd9c7b41a91"/>
                    <path d="M179.9 111.3L140 84.5l-.1 53.6 40-26.8z" data-color="1" class="icon1d62916b3-85df-448a-80ab-bbd9c7b41a91"/>
                    <path d="M20.1 111.3L60 84.5 20.1 61.9v49.4z" data-color="3" class="icon3d62916b3-85df-448a-80ab-bbd9c7b41a91"/>
                    <path d="M100 111.3L60.1 84.5 100 61.9v49.4z" data-color="3" class="icon3d62916b3-85df-448a-80ab-bbd9c7b41a91"/>
                    <path d="M100 111.3l39.9-26.9L100 61.9v49.4z" data-color="1" class="icon1d62916b3-85df-448a-80ab-bbd9c7b41a91"/>
                    <path d="M139.9 35l39.9 26.9-39.9 22.6V35z" data-color="2" class="icon2d62916b3-85df-448a-80ab-bbd9c7b41a91"/>
                    <path d="M180 111.3l-39.9-26.9L180 61.9v49.4z" data-color="3" class="icon3d62916b3-85df-448a-80ab-bbd9c7b41a91"/>
                </g>
            </g>
        </svg>
    </g>
    <g opacity="1" transform="rotate(0 84.1103 16.641899999999993)">
        <svg width="215.8897" height="30.8183" x="84.1103" y="16.641899999999993" version="1.1" preserveAspectRatio="none" viewBox="3.32 -31.48 222.76 31.8">
            <g transform="matrix(1 0 0 1 0 0)" class="companyNamed62916b3-85df-448a-80ab-bbd9c7b41a91">
                <path d="M34.88 0L28.80 0L28.76-16.80L20.52-2.96L17.60-2.96L9.40-16.44L9.40 0L3.32 0L3.32-28L8.68-28L19.16-10.60L29.48-28L34.80-28L34.88 0Z M51.32 0.32Q47.92 0.32 45.22-1.10Q42.52-2.52 41-5.04Q39.48-7.56 39.48-10.76L39.48-10.76Q39.48-13.96 41-16.48Q42.52-19 45.22-20.42Q47.92-21.84 51.32-21.84L51.32-21.84Q54.72-21.84 57.40-20.42Q60.08-19 61.60-16.48Q63.12-13.96 63.12-10.76L63.12-10.76Q63.12-7.56 61.60-5.04Q60.08-2.52 57.40-1.10Q54.72 0.32 51.32 0.32L51.32 0.32ZM51.32-4.80Q53.72-4.80 55.26-6.42Q56.80-8.04 56.80-10.76L56.80-10.76Q56.80-13.48 55.26-15.10Q53.72-16.72 51.32-16.72L51.32-16.72Q48.92-16.72 47.36-15.10Q45.80-13.48 45.80-10.76L45.80-10.76Q45.80-8.04 47.36-6.42Q48.92-4.80 51.32-4.80L51.32-4.80Z M82.04-21.52L88.04-21.52L78.96 0L72.52 0L63.48-21.52L69.92-21.52L75.88-6.88L82.04-21.52Z M90.60 0L90.60-21.52L96.84-21.52L96.84 0L90.60 0ZM93.72-24.52Q92-24.52 90.92-25.52Q89.84-26.52 89.84-28L89.84-28Q89.84-29.48 90.92-30.48Q92-31.48 93.72-31.48L93.72-31.48Q95.44-31.48 96.52-30.52Q97.60-29.56 97.60-28.12L97.60-28.12Q97.60-26.56 96.52-25.54Q95.44-24.52 93.72-24.52L93.72-24.52Z M123.72-10.68Q123.72-10.56 123.60-9L123.60-9L107.32-9Q107.76-7 109.40-5.84Q111.04-4.68 113.48-4.68L113.48-4.68Q115.16-4.68 116.46-5.18Q117.76-5.68 118.88-6.76L118.88-6.76L122.20-3.16Q119.16 0.32 113.32 0.32L113.32 0.32Q109.68 0.32 106.88-1.10Q104.08-2.52 102.56-5.04Q101.04-7.56 101.04-10.76L101.04-10.76Q101.04-13.92 102.54-16.46Q104.04-19 106.66-20.42Q109.28-21.84 112.52-21.84L112.52-21.84Q115.68-21.84 118.24-20.48Q120.80-19.12 122.26-16.58Q123.72-14.04 123.72-10.68L123.72-10.68ZM112.56-17.12Q110.44-17.12 109-15.92Q107.56-14.72 107.24-12.64L107.24-12.64L117.84-12.64Q117.52-14.68 116.08-15.90Q114.64-17.12 112.56-17.12L112.56-17.12Z M140.96-21.84Q144.96-21.84 147.42-19.44Q149.88-17.04 149.88-12.32L149.88-12.32L149.88 0L143.64 0L143.64-11.36Q143.64-13.92 142.52-15.18Q141.40-16.44 139.28-16.44L139.28-16.44Q136.92-16.44 135.52-14.98Q134.12-13.52 134.12-10.64L134.12-10.64L134.12 0L127.88 0L127.88-29.68L134.12-29.68L134.12-19.28Q135.36-20.52 137.12-21.18Q138.88-21.84 140.96-21.84L140.96-21.84Z M166 0.32Q162.60 0.32 159.90-1.10Q157.20-2.52 155.68-5.04Q154.16-7.56 154.16-10.76L154.16-10.76Q154.16-13.96 155.68-16.48Q157.20-19 159.90-20.42Q162.60-21.84 166-21.84L166-21.84Q169.40-21.84 172.08-20.42Q174.76-19 176.28-16.48Q177.80-13.96 177.80-10.76L177.80-10.76Q177.80-7.56 176.28-5.04Q174.76-2.52 172.08-1.10Q169.40 0.32 166 0.32L166 0.32ZM166-4.80Q168.40-4.80 169.94-6.42Q171.48-8.04 171.48-10.76L171.48-10.76Q171.48-13.48 169.94-15.10Q168.40-16.72 166-16.72L166-16.72Q163.60-16.72 162.04-15.10Q160.48-13.48 160.48-10.76L160.48-10.76Q160.48-8.04 162.04-6.42Q163.60-4.80 166-4.80L166-4.80Z M181.96 0L181.96-29.68L188.20-29.68L188.20 0L181.96 0Z M194.00 0L194.00-21.52L200.24-21.52L200.24 0L194.00 0ZM197.12-24.52Q195.40-24.52 194.32-25.52Q193.24-26.52 193.24-28L193.24-28Q193.24-29.48 194.32-30.48Q195.40-31.48 197.12-31.48L197.12-31.48Q198.84-31.48 199.92-30.52Q201.00-29.56 201.00-28.12L201.00-28.12Q201.00-26.56 199.92-25.54Q198.84-24.52 197.12-24.52L197.12-24.52Z M216.44 0.32Q213.00 0.32 210.26-1.10Q207.52-2.52 205.98-5.04Q204.44-7.56 204.44-10.76L204.44-10.76Q204.44-13.96 205.98-16.48Q207.52-19 210.26-20.42Q213.00-21.84 216.44-21.84L216.44-21.84Q219.84-21.84 222.38-20.42Q224.92-19 226.08-16.36L226.08-16.36L221.24-13.76Q219.56-16.72 216.40-16.72L216.40-16.72Q213.96-16.72 212.36-15.12Q210.76-13.52 210.76-10.76L210.76-10.76Q210.76-8 212.36-6.40Q213.96-4.80 216.40-4.80L216.40-4.80Q219.60-4.80 221.24-7.76L221.24-7.76L226.08-5.12Q224.92-2.56 222.38-1.12Q219.84 0.32 216.44 0.32L216.44 0.32Z"/>
            </g>
        </svg>
    </g>
    <g opacity="1" transform="rotate(0 72.78299999999999 0)">
        <svg width="2.4654" height="64.1021" x="72.78299999999999" y="0" version="1.1" preserveAspectRatio="none" viewBox="0 0 2.4654 64.1021">
            <rect x="0" y="0" width="2.4654" height="64.1021" class="companyNamed62916b3-85df-448a-80ab-bbd9c7b41a91 shapeStroke-strd62916b3-85df-448a-80ab-bbd9c7b41a91" style="stroke-width:0;" rx="0px" ry="0px"/>
        </svg>
    </g>
</svg>
